<svg width="46" height="46" viewBox="0 0 46 46" fill="none" xmlns="http://www.w3.org/2000/svg">
<path d="M36.179 37C35.7818 37 35.4369 36.6716 35.3705 36.2161C34.7786 32.2636 31.4316 25.3652 22.9416 24.962V30.0334C22.9416 30.3848 22.7699 30.7067 22.4967 30.8675C22.2234 31.0282 21.8945 31.0009 21.6445 30.7967L9.34349 20.7491C9.12791 20.5729 9 20.2886 9 19.9857C9 19.6827 9.12791 19.3984 9.34349 19.2223L21.6446 9.17475C21.8945 8.97051 22.2235 8.94318 22.4967 9.10396C22.7699 9.26474 22.9416 9.58668 22.9416 9.93808V15.0858C28.1896 15.6844 37 20.0162 37 36.0619C37 36.55 36.6727 36.9565 36.2473 36.9967C36.2244 36.9989 36.2016 37 36.179 37Z" fill="black"/>
</svg>
