<svg width="46" height="46" viewBox="0 0 46 46" fill="none" xmlns="http://www.w3.org/2000/svg">
<mask id="mask0_15583_2922" style="mask-type:alpha" maskUnits="userSpaceOnUse" x="3" y="3" width="40" height="40">
<rect x="3" y="43" width="40" height="40" transform="rotate(-90 3 43)" fill="black"/>
</mask>
<g mask="url(#mask0_15583_2922)">
<path d="M25.6758 25.7408L25.6758 33.7917C25.6758 34.405 25.4611 34.9264 25.0317 35.3558C24.6025 35.7853 24.0811 36 23.4675 36C22.8539 36 22.3325 35.7853 21.9033 35.3558C21.4739 34.9264 21.2592 34.405 21.2592 33.7917L21.2592 25.7408L13.2083 25.7408C12.595 25.7408 12.0736 25.5261 11.6442 25.0967C11.2147 24.6675 11 24.1461 11 23.5325C11 22.9189 11.2147 22.3975 11.6442 21.9683C12.0736 21.5389 12.595 21.3242 13.2083 21.3242L21.2592 21.3242L21.2592 13.2733C21.2592 12.66 21.4739 12.1386 21.9033 11.7092C22.3325 11.2797 22.8539 11.065 23.4675 11.065C24.0811 11.065 24.6025 11.2797 25.0317 11.7092C25.4611 12.1386 25.6758 12.66 25.6758 13.2733L25.6758 21.3242L33.7267 21.3242C34.34 21.3242 34.8614 21.5389 35.2908 21.9683C35.7203 22.3975 35.935 22.9189 35.935 23.5325C35.935 24.1461 35.7203 24.6675 35.2908 25.0967C34.8614 25.5261 34.34 25.7408 33.7267 25.7408L25.6758 25.7408Z" fill="black" stroke="black" stroke-width="1.42857"/>
</g>
</svg>
