<svg width="46" height="46" viewBox="0 0 46 46" fill="none" xmlns="http://www.w3.org/2000/svg">
<g clip-path="url(#clip0_15583_2926)">
<mask id="mask0_15583_2926" style="mask-type:alpha" maskUnits="userSpaceOnUse" x="-6" y="-6" width="58" height="58">
<rect x="-5.28418" y="23" width="40" height="40" transform="rotate(-45 -5.28418 23)" fill="black"/>
</mask>
<g mask="url(#mask0_15583_2926)">
<path d="M22.954 26.8302L17.2612 32.523C16.8275 32.9567 16.307 33.1735 15.6996 33.1735C15.0925 33.1737 14.572 32.9569 14.1381 32.523C13.7042 32.0891 13.4874 31.5686 13.4876 30.9615C13.4876 30.3542 13.7044 29.8336 14.1381 29.4L19.8309 23.7072L14.1381 18.0144C13.7044 17.5807 13.4876 17.0602 13.4876 16.4528C13.4874 15.8457 13.7042 15.3252 14.1381 14.8913C14.572 14.4574 15.0925 14.2406 15.6996 14.2408C16.307 14.2408 16.8275 14.4576 17.2612 14.8913L22.954 20.5841L28.6468 14.8913C29.0805 14.4576 29.601 14.2408 30.2083 14.2408C30.8154 14.2406 31.3359 14.4574 31.7698 14.8913C32.2037 15.3252 32.4206 15.8457 32.4204 16.4528C32.4204 17.0602 32.2035 17.5807 31.7698 18.0144L26.077 23.7072L31.7698 29.4C32.2035 29.8336 32.4204 30.3542 32.4204 30.9615C32.4206 31.5686 32.2037 32.0891 31.7698 32.523C31.3359 32.9569 30.8154 33.1737 30.2083 33.1735C29.601 33.1735 29.0805 32.9567 28.6468 32.523L22.954 26.8302Z" fill="black" stroke="black" stroke-width="1.42857"/>
</g>
</g>
<defs>
<clipPath id="clip0_15583_2926">
<rect width="46" height="46" fill="white"/>
</clipPath>
</defs>
</svg>
