<svg width="46" height="46" viewBox="0 0 46 46" fill="none" xmlns="http://www.w3.org/2000/svg">
<path fill-rule="evenodd" clip-rule="evenodd" d="M8.63858 23.7785C8.70683 24.8285 8.82165 25.6589 9.11102 26.73C9.18952 27.0205 9.44402 27.2154 9.74502 27.2154H13.7796C14.1712 27.2154 14.4732 26.8805 14.4328 26.4909C14.1946 24.196 14.169 21.8092 14.3588 19.4942C14.3903 19.1095 14.0903 18.7839 13.7043 18.7839H9.74508C9.44415 18.7839 9.18958 18.9788 9.11108 19.2694C8.91583 19.9925 8.7749 20.7377 8.69652 21.5004C8.62602 22.1847 8.61815 22.629 8.62183 23.3047L8.63858 23.7785ZM14.7905 16.1411C15.056 14.6535 15.4121 13.2295 15.8511 11.8998C16.0474 11.3053 15.3698 10.7979 14.8546 11.1534C13.1358 12.3393 11.686 13.8893 10.6187 15.691C10.3586 16.13 10.6735 16.6825 11.1838 16.6825H14.144C14.4651 16.6825 14.7341 16.4572 14.7905 16.1411ZM29.0293 15.8981C28.5425 13.4416 27.7896 11.2032 26.8081 9.35111C26.7169 9.17904 26.5717 9.06623 26.3824 9.02036C24.1652 8.48323 21.8345 8.48367 19.6189 9.02036C19.4296 9.06623 19.2845 9.17898 19.1932 9.35111C18.2117 11.2033 17.4588 13.4416 16.972 15.8981C16.8911 16.3062 17.2001 16.6825 17.6162 16.6825H28.3851C28.8012 16.6825 29.1102 16.3062 29.0293 15.8981ZM31.8573 16.6825H34.8176C35.3279 16.6825 35.6427 16.1301 35.3827 15.6911C34.3154 13.889 32.8655 12.3386 31.1465 11.153C30.6313 10.7975 29.9538 11.305 30.15 11.8994C30.589 13.2292 30.9453 14.6534 31.2108 16.1412C31.2672 16.4572 31.5363 16.6825 31.8573 16.6825ZM32.2218 27.2155H36.2564C36.5573 27.2155 36.8119 27.0206 36.8904 26.73C37.0856 26.0073 37.2266 25.2619 37.3049 24.499C37.3813 23.7514 37.3795 23.4091 37.3795 22.6659C37.3795 22.368 37.3313 21.7569 37.3048 21.5004C37.2265 20.7377 37.0855 19.9925 36.8903 19.2694C36.8118 18.9788 36.5572 18.7839 36.2563 18.7839H32.2971C31.9111 18.7839 31.6111 19.1095 31.6426 19.4942C31.8324 21.8092 31.8068 24.1959 31.5686 26.4909C31.5282 26.8805 31.8302 27.2155 32.2218 27.2155ZM31.0582 29.8415C30.7441 31.3719 30.3156 32.903 29.7703 34.331C29.5448 34.9216 30.2059 35.4593 30.7381 35.1182C32.6365 33.9017 34.2309 32.2514 35.3823 30.3083C35.6424 29.8693 35.3276 29.3168 34.8173 29.3168H31.7015C31.3864 29.3169 31.1216 29.5329 31.0582 29.8415ZM16.2309 34.3307C15.6856 32.9026 15.2573 31.3719 14.9431 29.8415C14.8798 29.5329 14.615 29.3169 14.2999 29.3169H11.1841C10.6738 29.3169 10.359 29.8694 10.6191 30.3084C11.7705 32.2512 13.3649 33.9012 15.2631 35.1179C15.7953 35.459 16.4565 34.9213 16.2309 34.3307ZM28.2018 29.3169H17.7996C17.3757 29.3169 17.0649 29.7068 17.1594 30.12C17.7501 32.7022 18.6394 35.0063 19.7719 36.8122C19.8716 36.9712 20.0165 37.071 20.2006 37.1075C22.0491 37.4737 23.9506 37.474 25.8007 37.1075C25.9848 37.071 26.1297 36.9712 26.2295 36.8122C27.362 35.0063 28.2513 32.7026 28.842 30.12C28.9365 29.7068 28.6257 29.3169 28.2018 29.3169ZM16.3348 22.5785C16.3348 23.9565 16.416 25.3159 16.568 26.634C16.6065 26.967 16.8851 27.2155 17.2204 27.2155H28.781C29.1163 27.2155 29.395 26.967 29.4334 26.634C29.7096 24.2404 29.7413 21.7935 29.5236 19.3815C29.4929 19.042 29.2105 18.7839 28.8695 18.7839H17.1318C16.7908 18.7839 16.5085 19.042 16.4778 19.3815C16.3833 20.4287 16.3348 21.498 16.3348 22.5785Z" fill="black"/>
</svg>
