<svg width="46" height="46" viewBox="0 0 46 46" fill="none" xmlns="http://www.w3.org/2000/svg">
<g clip-path="url(#clip0_15583_2933)">
<path fill-rule="evenodd" clip-rule="evenodd" d="M6.8439 23.8757C6.92068 25.057 7.04984 25.9912 7.37539 27.1962C7.4637 27.523 7.75001 27.7423 8.08864 27.7423H12.6275C13.0681 27.7423 13.4078 27.3655 13.3624 26.9272C13.0944 24.3454 13.0656 21.6603 13.2791 19.0559C13.3145 18.6231 12.977 18.2568 12.5428 18.2568H8.08871C7.75015 18.2568 7.46377 18.4761 7.37546 18.803C7.1558 19.6165 6.99725 20.4549 6.90908 21.3128C6.82976 22.0827 6.8209 22.5825 6.82505 23.3427L6.8439 23.8757ZM13.7648 15.2837C14.0634 13.6101 14.4642 12.0081 14.958 10.5122C15.1788 9.84339 14.4166 9.27253 13.8369 9.67253C11.9033 11.0066 10.2722 12.7504 9.07154 14.7774C8.77897 15.2712 9.1332 15.8927 9.70723 15.8927H13.0375C13.3987 15.8927 13.7014 15.6393 13.7648 15.2837ZM29.7835 15.0103C29.2358 12.2467 28.3888 9.72857 27.2846 7.64493C27.182 7.45136 27.0187 7.32445 26.8057 7.27284C24.3114 6.66857 21.6893 6.66907 19.1967 7.27284C18.9838 7.32445 18.8205 7.45129 18.7179 7.64493C17.6137 9.72864 16.7667 12.2467 16.219 15.0103C16.128 15.4694 16.4757 15.8927 16.9437 15.8927H29.0588C29.5268 15.8927 29.8745 15.4694 29.7835 15.0103ZM32.9649 15.8927H36.2953C36.8694 15.8927 37.2235 15.2713 36.931 14.7774C35.7303 12.7501 34.0991 11.0059 32.1653 9.67204C31.5857 9.27217 30.8235 9.84304 31.0443 10.5118C31.5381 12.0078 31.9389 13.61 32.2376 15.2838C32.3011 15.6393 32.6038 15.8927 32.9649 15.8927ZM33.3751 27.7424H37.9139C38.2525 27.7424 38.5389 27.5231 38.6272 27.1962C38.8468 26.3831 39.0054 25.5446 39.0935 24.6863C39.1795 23.8453 39.1774 23.4602 39.1774 22.624C39.1774 22.289 39.1232 21.6014 39.0934 21.3128C39.0053 20.4549 38.8467 19.6165 38.627 18.803C38.5388 18.4761 38.2524 18.2568 37.9138 18.2568H33.4598C33.0255 18.2568 32.688 18.6231 32.7235 19.0559C32.9369 21.6603 32.9082 24.3453 32.6402 26.9272C32.5947 27.3656 32.9345 27.7424 33.3751 27.7424ZM32.066 30.6966C31.7126 32.4183 31.2305 34.1409 30.6171 35.7473C30.3634 36.4117 31.1071 37.0166 31.7059 36.6329C33.8415 35.2644 35.6352 33.4077 36.9305 31.2218C37.2232 30.7279 36.869 30.1063 36.2949 30.1063H32.7897C32.4352 30.1064 32.1373 30.3494 32.066 30.6966ZM15.3852 35.7469C14.7718 34.1404 14.2899 32.4183 13.9365 30.6967C13.8652 30.3494 13.5673 30.1064 13.2129 30.1064H9.70765C9.13355 30.1064 8.77939 30.728 9.07203 31.2218C10.3673 33.4076 12.161 35.2638 14.2965 36.6325C14.8952 37.0163 15.639 36.4114 15.3852 35.7469ZM28.8526 30.1064H17.15C16.6732 30.1064 16.3235 30.5451 16.4298 31.0099C17.0943 33.9149 18.0948 36.507 19.3689 38.5387C19.481 38.7176 19.6441 38.8299 19.8512 38.8709C21.9308 39.2828 24.07 39.2832 26.1513 38.8709C26.3584 38.8299 26.5214 38.7176 26.6336 38.5387C27.9077 36.507 28.9082 33.9154 29.5728 31.0099C29.6791 30.5451 29.3294 30.1064 28.8526 30.1064ZM15.5022 22.5258C15.5022 24.076 15.5934 25.6053 15.7645 27.0882C15.8078 27.4629 16.1213 27.7424 16.4984 27.7424H29.5041C29.8813 27.7424 30.1948 27.4629 30.2381 27.0882C30.5488 24.3953 30.5845 21.6427 30.3395 18.9292C30.305 18.5472 29.9873 18.2568 29.6037 18.2568H16.3988C16.0152 18.2568 15.6975 18.5472 15.663 18.9292C15.5567 20.1072 15.5022 21.3102 15.5022 22.5258Z" fill="black"/>
</g>
<defs>
<clipPath id="clip0_15583_2933">
<rect width="46" height="46" fill="white"/>
</clipPath>
</defs>
</svg>
