<svg width="26" height="26" viewBox="0 0 26 26" fill="none" xmlns="http://www.w3.org/2000/svg">
<path d="M13.1181 17.4274C14.1924 17.4274 15.2227 16.9709 15.9824 16.1582C16.7421 15.3455 17.1688 14.2433 17.1688 13.0941V6.59408C17.1688 5.4448 16.7421 4.3426 15.9824 3.52995C15.2227 2.71729 14.1924 2.26074 13.1181 2.26074C12.0438 2.26074 11.0135 2.71729 10.2538 3.52995C9.49415 4.3426 9.06738 5.4448 9.06738 6.59408V13.0941C9.06738 14.2433 9.49415 15.3455 10.2538 16.1582C11.0135 16.9709 12.0438 17.4274 13.1181 17.4274Z" fill="#B3B3B3"/>
<path d="M19.3254 13.1882C19.0541 13.1882 18.794 13.2875 18.6022 13.4641C18.4103 13.6408 18.3026 13.8804 18.3026 14.1303C18.3026 15.3795 17.7638 16.5775 16.8048 17.4608C15.8457 18.3442 14.545 18.8404 13.1887 18.8404C11.8324 18.8404 10.5317 18.3442 9.57266 17.4608C8.61363 16.5775 8.07485 15.3795 8.07485 14.1303C8.07485 13.8804 7.96709 13.6408 7.77528 13.4641C7.58347 13.2875 7.32333 13.1882 7.05207 13.1882C6.78081 13.1882 6.52067 13.2875 6.32886 13.4641C6.13705 13.6408 6.0293 13.8804 6.0293 14.1303C6.0293 15.8792 6.78359 17.5564 8.12624 18.7931C9.46889 20.0297 11.2899 20.7245 13.1887 20.7245C15.0875 20.7245 16.9085 20.0297 18.2512 18.7931C19.5938 17.5564 20.3481 15.8792 20.3481 14.1303C20.3481 13.8804 20.2404 13.6408 20.0486 13.4641C19.8568 13.2875 19.5966 13.1882 19.3254 13.1882Z" fill="#B3B3B3"/>
<path d="M16.1562 21.7607H10.0801C9.81148 21.7607 9.5539 21.8749 9.36399 22.078C9.17408 22.2812 9.06738 22.5568 9.06738 22.8441C9.06738 23.1314 9.17408 23.4069 9.36399 23.6101C9.5539 23.8133 9.81148 23.9274 10.0801 23.9274H16.1562C16.4247 23.9274 16.6823 23.8133 16.8722 23.6101C17.0621 23.4069 17.1688 23.1314 17.1688 22.8441C17.1688 22.5568 17.0621 22.2812 16.8722 22.078C16.6823 21.8749 16.4247 21.7607 16.1562 21.7607Z" fill="#B3B3B3"/>
</svg>
