<svg width="46" height="46" viewBox="0 0 46 46" fill="none" xmlns="http://www.w3.org/2000/svg">
<path fill-rule="evenodd" clip-rule="evenodd" d="M23.0006 8.41669C18.9736 8.41669 15.709 11.6813 15.709 15.7084C15.709 19.7354 18.9736 23 23.0006 23C27.0277 23 30.2923 19.7354 30.2923 15.7084C30.2923 11.6813 27.0277 8.41669 23.0006 8.41669Z" fill="black"/>
<path fill-rule="evenodd" clip-rule="evenodd" d="M18.6253 24.4584C16.2005 24.4584 13.8686 25.5645 12.502 27.2298C11.8084 28.075 11.3208 29.1208 11.2784 30.2799C11.235 31.4636 11.6623 32.6189 12.5435 33.6271C14.6909 36.0836 18.1197 37.5834 23.0003 37.5834C27.8809 37.5834 31.3097 36.0836 33.4571 33.6271C34.3384 32.6189 34.7656 31.4636 34.7222 30.2799C34.6798 29.1208 34.1923 28.075 33.4987 27.2298C32.1321 25.5645 29.8002 24.4584 27.3753 24.4584H18.6253Z" fill="black"/>
</svg>
