<svg width="46" height="46" viewBox="0 0 46 46" fill="none" xmlns="http://www.w3.org/2000/svg">
<path d="M12.9318 16.2125V19.7626H12.6955C11.2088 19.7626 10 20.9714 10 22.4581V37.3045C10 38.7912 11.2088 40 12.6955 40H33.4123C34.8991 40 36.1079 38.7912 36.1079 37.3045V22.4512C36.1079 20.9644 34.8991 19.7556 33.4123 19.7556H33.3429V16.2056C33.3429 10.5783 28.7646 6 23.1373 6C17.51 6.00695 12.9318 10.5852 12.9318 16.2125ZM24.6518 30.5378C24.4434 30.6906 24.3878 30.8365 24.3878 31.0797C24.3948 32.1704 24.3948 33.2542 24.3948 34.3449C24.4156 34.7965 24.1864 35.2411 23.7834 35.4426C22.8316 35.9289 21.8799 35.2481 21.8799 34.3449V34.338C21.8799 33.2472 21.8799 32.1565 21.8868 31.0658C21.8868 30.8435 21.8382 30.6976 21.6436 30.5517C20.6571 29.8222 20.3306 28.5787 20.8239 27.4879C21.3032 26.425 22.4773 25.7998 23.5819 26.0221C24.8116 26.2722 25.6661 27.2587 25.68 28.4884C25.68 29.3429 25.3396 30.0376 24.6518 30.5378ZM17.3989 16.2125C17.3989 13.0445 19.9763 10.4741 23.1373 10.4741C26.3053 10.4741 28.8758 13.0515 28.8758 16.2125V19.7626H17.3989V16.2125Z" fill="black"/>
</svg>
